<?xml version="1.0" encoding="UTF-8" standalone="no"?>
<svg
   width="698"
   height="256"
   preserveAspectRatio="none"
   style="display:block"
   viewBox="0 0 2048 751"
   version="1.1"
   id="svg49"
   sodipodi:docname="both.svg"
   inkscape:version="1.4.3 (0d15f75, 2025-12-25)"
   xmlns:inkscape="http://www.inkscape.org/namespaces/inkscape"
   xmlns:sodipodi="http://sodipodi.sourceforge.net/DTD/sodipodi-0.dtd"
   xmlns="http://www.w3.org/2000/svg"
   xmlns:svg="http://www.w3.org/2000/svg">
  <defs
     id="defs49" />
  <sodipodi:namedview
     id="namedview49"
     pagecolor="#ffffff"
     bordercolor="#000000"
     borderopacity="0.25"
     inkscape:showpageshadow="2"
     inkscape:pageopacity="0.0"
     inkscape:pagecheckerboard="0"
     inkscape:deskcolor="#d1d1d1"
     inkscape:zoom="0.30948584"
     inkscape:cx="302.11398"
     inkscape:cy="505.67741"
     inkscape:window-width="1366"
     inkscape:window-height="697"
     inkscape:window-x="-8"
     inkscape:window-y="-8"
     inkscape:window-maximized="1"
     inkscape:current-layer="svg49" />
  <g
     id="g7"
     inkscape:label="horizontal">
    <path
       fill="#e52730"
       d="m 588.426,44.344 c 18.122,8.454 38.583,16.423 57.125,24.432 l 131.639,57.369 -110.697,65.386 c -18.18,10.752 -40.828,23.291 -58.008,34.876 20.951,17.944 41.751,38.147 62.76,56.538 l -7.23,9.334 -40.806,59.52 c -8.239,12.263 -21.817,33.796 -30.755,44.822 -4.809,-6.55 -9.954,-13.877 -15.061,-20.117 -3.961,-0.789 -10.314,-1.888 -13.918,-3.107 -6.076,-8.612 -11.807,-14.328 -19.619,-21.248 -7.462,-6.61 -17.763,-19.488 -28.428,-9.932 -10.65,9.542 -20.927,21.823 -28.459,33.963 -14.065,4.548 -16.048,15.794 -25.437,26.944 l -11.956,0.254 c -9.515,9.769 -14.86,16.925 -22.565,28.269 -0.901,-21.238 -1.979,-69.026 -0.026,-89.5 -0.178,-4.708 -1.182,-20.65 0.416,-23.814 46.908,-92.862 102.516,-188.434 161.025,-273.989"
       id="path1"
       style="display:inline" />
    <polygon
       id="polygon555"
       style="display:inline;fill:#ffffff;fill-rule:evenodd;stroke-width:1pt"
       sodipodi:type="star"
       sodipodi:sides="16"
       sodipodi:r1="60.115585"
       sodipodi:r2="39.732399"
       sodipodi:arg1="0"
       sodipodi:arg2="0.18057635"
       transform="matrix(0.71197336,0,0,0.69425887,358.5001,-81.709546)"
       inkscape:randomized="0"
       d="m 296.97868,523.24292 -21.02922,7.1358 16.4532,15.86944 -22.15922,-1.45491 9.1278,20.95781 -19.91568,-9.82413 0.41278,22.85555 -14.64016,-16.69771 -8.36508,21.27374 -7.1358,-21.02923 -15.86944,16.4532 1.45491,-22.15922 -20.95781,9.1278 9.82413,-19.91568 -22.85555,0.41278 16.69771,-14.64016 -21.27374,-8.36508 21.02922,-7.1358 -16.45319,-15.86944 22.15922,1.45491 -9.1278,-20.95781 19.91568,9.82413 -0.41278,-22.85555 14.64016,16.69771 8.36508,-21.27374 7.1358,21.02923 15.86944,-16.4532 -1.45492,22.15922 20.95782,-9.1278 -9.82413,19.91568 22.85555,-0.41278 -16.69772,14.64016 z"
       sodipodi:cy="523.24292"
       sodipodi:cx="236.8631"
       inkscape:rounded="0"
       inkscape:flatsided="false"
       points="296.98 523.24 275.95 530.38 292.4 546.25 270.24 544.79 279.37 565.75 259.46 555.93 259.87 578.78 245.23 562.08 236.86 583.36 229.73 562.33 213.86 578.78 215.31 556.62 194.36 565.75 204.18 545.84 181.32 546.25 198.02 531.61 176.75 523.24 197.78 516.11 181.32 500.24 203.48 501.69 194.36 480.74 214.27 490.56 213.86 467.7 228.5 484.4 236.86 463.13 244 484.16 259.87 467.7 258.41 489.86 279.37 480.74 269.55 500.65 292.4 500.24 275.7 514.88" />
    <path
       fill="#071f3a"
       d="m 588.426,44.344 c 18.122,8.454 38.583,16.423 57.125,24.432 l 131.639,57.369 -110.697,65.386 c -18.18,10.752 -40.828,23.291 -58.008,34.876 20.951,17.944 41.751,38.147 62.76,56.538 l -7.23,9.334 c -7.634,-4.649 -15.659,-13.473 -22.598,-19.533 -17.388,-15.187 -35.878,-34.703 -54.195,-48.249 12.039,-9.015 32.668,-20.365 46.313,-28.383 a 5939,5939 0 0 0 81.335,-47.933 c 7.296,-4.358 29.001,-16.259 34.479,-20.832 A 5669,5669 0 0 1 592.407,59.163 c -11.787,19.943 -26.031,40.013 -38.461,59.96 a 3730,3730 0 0 0 -66.992,113.069 c -14.324,25.038 -27.592,51.503 -41.598,76.78 -4.005,7.229 -14.015,27.997 -18.371,33.175 -0.178,-4.708 -1.182,-20.65 0.416,-23.814 46.908,-92.862 102.516,-188.434 161.025,-273.989"
       id="path2"
       style="display:inline" />
    <path
       fill="#071f3a"
       d="m 45.4,50.12 c 38.227,-1.302 77.009,-0.581 115.271,-0.21 46.342,0.451 84.992,13.817 117.973,47.547 9.532,9.748 17.425,20.6 24.923,31.959 22.817,34.566 102.774,174.035 109.589,208.823 2.101,10.725 1.438,22.446 1.475,33.34 0.074,21.569 -0.537,43.135 -0.432,64.7 q 1.023,128.786 0.023,257.573 -34.363,0.368 -68.724,0.088 -0.48,-29.026 -0.33,-58.056 c -0.004,-17.099 0.002,-34.214 -0.141,-51.31 -0.574,-68.614 -28.937,-121.655 -66.021,-176.889 44.807,-6.751 77.299,-36.736 81.494,-82.923 a 94.05,94.05 0 0 0 -4.501,-38.519 C 343.736,248.711 305.009,191.876 282.539,158.292 250.54,110.467 144.743,95.803 138.194,171.808 120.712,132.918 74.884,81.562 45.4,50.12 m 1406.57,121.699 c 12.1,-1.132 32.12,-0.711 44.3,0.028 0.59,59.7 0.28,122.024 -0.06,181.747 -13.28,0.635 -28,0.299 -41.28,0.045 l -0.27,-57.389 -0.85,-53.245 c -13.66,23.971 -29.99,49.886 -44.31,73.784 -5.79,0.2 -9.18,0.026 -14.97,-0.483 -13.9,-24.34 -29.13,-49.378 -43.52,-73.485 l -0.36,110.876 c -13.43,0.235 -27.42,0.049 -40.9,0.067 -0.74,-18.132 -1.56,-176.965 0.98,-181.672 l 2.49,-0.6 c 13.57,-0.251 27.15,-0.186 40.71,0.193 13.84,28.568 34.05,57.813 48.47,86.157 5.06,-9.682 13.46,-22.625 19.21,-32.447 a 4204,4204 0 0 0 30.36,-53.576 m 224.5,-0.423 c 14.67,-0.143 29.79,0.177 44.5,0.307 l 0.02,182.231 c -13.64,0.237 -27.29,0.216 -40.94,-0.061 l -0.28,-61.675 c -0.21,-16.399 -0.16,-32.8 0.18,-49.196 -14.63,20.544 -31.42,51.345 -44.5,73.759 -4.73,0.135 -9.88,0.052 -14.65,0.071 a 4132,4132 0 0 0 -43.78,-75.34 l -0.12,112.269 c -13.37,0.322 -27.45,0.037 -40.88,-0.034 -0.31,-8.632 -0.42,-17.943 -0.18,-26.586 1.38,-50.788 -1.84,-103.505 0.49,-154.095 1.81,-1.88 3.21,-1.331 6.51,-1.562 l 37.19,0.114 c 14.23,26.42 36.14,61.283 48.44,86.584 1.9,-4.263 3.99,-8.185 6.32,-12.211 14.24,-24.568 29.1,-49.1 41.68,-74.575"
       id="path5"
       style="display:inline" />
    <path
       fill="#e52730"
       d="m 931.219,408.043 39.074,-0.097 c 13.064,19.511 30.107,40.918 43.807,60.762 7.8,11.29 29.29,42.255 37.38,50.987 -0.76,-12.216 -0.33,-28.262 -0.33,-40.813 l -0.02,-70.866 41.08,0.045 c 1.01,20.443 0.6,45.972 0.64,66.704 l -0.02,117.41 q -19.185,0.19 -38.37,0.013 c -25.59,-37.791 -56.57,-76.421 -81.644,-113.949 l -0.133,113.692 c -13.527,0.468 -28.089,0.309 -41.696,0.405 -0.32,-60.121 -1.029,-124.284 0.232,-184.293 m 368.591,-0.165 c 30.96,-0.037 94.83,-5.144 119.32,11.999 a 56.06,56.06 0 0 1 22.78,36.841 c 7.04,41.704 -14.32,71.243 -55.66,78.199 -13.15,1.542 -30.85,0.946 -44.41,0.788 -0.48,18.843 -0.48,37.696 -0.01,56.54 -13.86,0.208 -28.04,0.078 -41.94,0.102 -0.44,-61.489 -0.47,-122.98 -0.08,-184.469"
       id="path6"
       style="display:inline" />
    <path
       fill="#ffffff"
       d="m 1341.92,444.791 c 20.73,0.385 55.54,-5.719 58.68,23.238 1.03,9.541 -1.5,16.173 -7.36,23.56 -13.9,11.185 -33.61,8.496 -51.29,8.199 -0.3,-18.114 -0.06,-36.834 -0.03,-54.997"
       id="path7"
       style="display:inline" />
    <path
       fill="#071f3a"
       d="m 501.592,425.041 c 5.602,7.791 14.716,27.651 20.436,31.449 2.63,-1.763 -0.601,-5.372 1.733,-8.461 5.411,2.804 12.871,11.378 21.801,16.528 l 0.186,6.527 c -23.729,46.122 -45.415,91.067 -48.38,143.785 -1.381,24.56 -0.637,54.208 -0.606,79.089 l -69.83,-0.137 a 8481,8481 0 0 1 -0.259,-206.625 c 5.363,-3.758 16.08,-15.112 18.855,-15.514 1.007,2.728 -1.03,7.1 -2.047,10.08 11.527,-9.813 24.433,-22.112 35.774,-32.421 -8.21,16.009 -17.245,34.032 -24.689,50.334 l 13.333,-7.789 c -7.842,13.1 -14.403,25.666 -22.72,39.151 26.686,-20.066 39.504,-37.347 49.644,-68.925 -5.124,3.548 -10.269,7.424 -15.308,11.121 7.686,-15.965 14.71,-32.088 22.077,-48.192"
       id="path8"
       style="display:inline" />
    <path
       fill="#c5c9d3"
       d="m 500.593,472.48 c 5.715,1.337 8.849,12.12 10.539,16.993 -7.098,-2.787 -9.04,-10.281 -10.539,-16.993"
       id="path9"
       style="display:inline" />
    <g
       id="g5">
      <path
         fill="#e52730"
         d="m 1513.84,407.899 c 12.49,-0.447 26.67,-0.182 39.29,-0.242 23.2,59.512 50.62,124.634 71.63,184.287 l -42.92,0.53 a 1695,1695 0 0 1 -13.5,-36.659 l -17.84,0.06 -54.61,0.189 c -3.03,9.99 -10.12,26.46 -14.19,36.663 -10.35,-1.149 -30.3,-0.823 -41.35,-0.964 a 6799,6799 0 0 1 48.59,-124.082 c 7.92,-19.439 16.16,-40.851 24.9,-59.782"
         id="path10"
         style="display:inline" />
      <path
         fill="#ffffff"
         d="m 1531.27,460.68 c 3.49,2.83 21,51.246 24.21,59.166 l -21.86,0.052 -24.29,-0.22 c 6.83,-19.967 15.43,-37.838 21.94,-58.998"
         id="path11"
         style="display:inline" />
    </g>
    <path
       fill="#e52730"
       d="m1133.44 407.922 131.81-.034c.38 11.584-.02 24.734-.12 36.43-30.26.539-60.53.52-90.8-.054q.03 18.412.48 36.818c26.07.613 52.14.834 78.22.664l-.41 35.703-74.87.129c-.48-.005-1.82.471-2.37.641-1.76 3.801-.7 30.728-.58 36.957 30.36.364 60.72.351 91.07-.039l-.05 36.666c-44.11.453-88.23.523-132.34.21-.33-5.946-.38-12.568-.3-18.562.67-54.796-1.27-110.865.26-165.529"
       id="path12" />
    <path
       fill="#071f3a"
       d="M1113.46 171.134c13.79.018 27.76.319 41.56.496.99 38.277-1.93 82.619 1.98 120.642 2.58 25.075 43.8 33.891 61.13 16.24 15.3-15.594 10.01-42.146 10.9-62.34.33-24.961-.51-49.886.17-74.853q21.03-.253 42.03.35l.34 37.142c-.45 22.227.34 44.736.03 67.115.13 22.503-5.53 45.292-22.52 61.302-28.19 26.551-90.05 25.827-116.55-2.426a69.77 69.77 0 0 1-16.66-31.713c-3.05-12.945-3.12-28.611-2.94-42.011.38-29.858-.54-60.131.53-89.944m630.04.409c14.55-.563 30.81-.244 45.48-.272 12.85 23.553 26.59 47.659 38.85 71.386 12.23-20.161 28.64-50.095 39.34-71.135 15.12-.364 30.74-.019 45.89.127-10.97 21.454-28.73 50.595-41.23 71.83-4.57 8.085-21.68 33.908-22.22 41.153-1.57 21.185-.7 47.751-.8 69.277-13.92.318-27.85.381-41.77.189-.27-12.11 1.09-61.069-1.22-69.858-3.42-13.014-62.85-103.804-62.32-112.697m-700.1.03c14.97-.69 32.52-.174 47.67-.082l-44.16 74.362a2820 2820 0 0 1-21.93 36.229q0 35.933-.45 71.863c-13.23.24-27.247-.041-40.543-.086-.472-19.483 2.636-52.602-1.738-71.123-3.668-15.528-62.53-100.851-61.514-110.622l2.904-.647q21.146-.156 42.293-.033c12.059 22.47 27.384 48.152 38.428 70.333 12.9-20.471 28.08-48.574 39.04-70.194"
       id="path13" />
    <path
       fill="#e52730"
       d="m 1649.65,407.994 q 20.835,-0.115 41.67,0.025 l 0.05,146.736 c 27.38,0.345 56.25,-0.367 83.77,-0.459 l 0.46,37.883 -125.65,-0.13 c -1.25,-21.797 -0.71,-46.324 -0.65,-68.248 z M 259.98,301.663 c 8.567,-15.649 5.426,-38.414 22.113,-52.86 10.725,-10.485 28.81,-9.221 39.134,1.675 15.523,16.382 0.271,33.598 0.09,47.219 -0.476,10.305 -7.046,20.904 -14.69,27.593 -30.172,26.405 -77.223,22.356 -106.263,-3.745 -11.992,-10.779 -20.457,-21.976 -28.511,-35.87 -2.476,-4.271 -4.78,-7.248 -6.296,-12.072 0.64,-2.913 1.835,-4.124 4.655,-5.934 a 49,49 0 0 1 2.539,-1.49 c 6.061,1.476 15.928,17.002 21.144,20.893 19.365,14.449 43.461,16.918 66.085,14.591"
       id="path14"
       style="display:inline" />
    <path
       fill="#071f3a"
       d="m 321.317,297.697 c -0.476,10.305 -7.046,20.904 -14.69,27.593 -30.172,26.405 -77.223,22.356 -106.263,-3.745 -11.992,-10.779 -20.457,-21.976 -28.511,-35.87 -2.476,-4.271 -4.78,-7.248 -6.296,-12.072 0.64,-2.913 1.835,-4.124 4.655,-5.934 a 49,49 0 0 1 2.539,-1.49 c 6.061,1.476 15.928,17.002 21.144,20.893 19.365,14.449 43.461,16.918 66.085,14.591 3.861,9.046 -17.796,23.366 -23.875,27.74 32.467,5.641 46.252,-1.255 56.84,-34.71 1.338,-4.23 1.688,-11.495 4.463,-14.428 l 2.398,0.176 1.187,1.982 c 1.361,11.362 -9.976,32.343 -16.046,42.36 24.383,-7.729 20.923,-14.888 35.782,-26.629 z M 427.025,442.85 c 6.687,-7.897 20.981,-27.616 28.476,-31.659 3.616,0.277 7.013,2.247 9.584,-0.233 6.917,-6.672 11.158,-15.686 17.452,-22.926 2.249,-2.588 7.974,-3.308 9.708,-5.729 9.511,-13.281 20.707,-24.6 31.368,-36.886 16.002,14.551 25.114,20.178 38.008,37.875 4.481,0.311 7.785,0.158 11.336,2.876 l 0.525,0.396 c 5.77,4.425 9.934,11.756 15.381,17.129 -8.846,13.041 -16.213,23.84 -24.671,37.379 -0.69,-0.36 -4.9,-3.779 -6.893,-5.005 -5.239,-3.509 -23.901,-26.772 -20.619,-33.648 q 2.638,1.202 5.32,2.3 c 4.936,-4.811 -12.402,-24.577 -15.932,-28.422 -0.456,-5.503 -0.873,-13.232 -1.699,-18.517 -4.425,4.74 -18.551,19.385 -18.791,24.909 3.519,1.926 2.835,0.859 3.854,4.172 -1.169,5.528 -9.351,16.992 -14.043,19.428 -1.271,-3.123 1.561,-9.745 2.807,-13.169 -3.646,2.877 -13.072,9.385 -13.679,13.755 -0.266,1.919 1.188,3.524 1.091,3.934 -1.893,7.985 -18.984,23.815 -24.234,28.215 1.581,-3.466 4.103,-7.766 3.543,-11.348 -7.271,-7.375 -21.96,19.912 -25.681,24.48 -3.882,4.766 -7.928,8.784 -12.265,13.121 z"
       id="path15"
       style="display:inline" />
    <path
       fill="#ffffff"
       d="m 563.887,394.578 c 7.705,2.182 13.65,12.245 11.53,19.73 -5.178,-2.286 -11.236,-14.429 -11.53,-19.73"
       id="path16"
       style="display:inline" />
    <path
       fill="#c5c9d3"
       d="m 534.823,367.959 c 4.826,3.831 9.259,7.592 11.361,13.544 -7.81,-1.063 -10.515,-6.082 -11.361,-13.544"
       id="path17"
       style="display:inline" />
    <path
       fill="#787a80"
       d="m 848.202,82.085 c 1.457,0.1 1.981,0.518 3.303,1.208 3.569,10.673 0.986,144.706 0.972,164.158 l 0.138,446.227 c -2.691,0.661 -1.584,0.701 -4.207,-0.131 -1.5,-3.407 -0.453,-52.964 -0.459,-61.802 l -0.033,-182.414 z"
       id="path18"
       style="display:inline" />
    <g
       id="g53"
       transform="matrix(0.90731643,0,0,0.90731643,88.584158,14.326415)">
      <text
         xml:space="preserve"
         style="font-size:60.5672px;font-family:'Times New Roman';-inkscape-font-specification:'Times New Roman, Normal';writing-mode:lr-tb;direction:ltr;display:block;fill:#e52730;fill-opacity:1;fill-rule:evenodd;stroke:#091e47;stroke-width:0;stroke-miterlimit:0;paint-order:markers stroke fill"
         x="1334.3704"
         y="743.76782"
         id="text5"
         transform="scale(1.0000858,0.99991419)"><tspan
           sodipodi:role="line"
           id="tspan5"
           style="font-weight:bold;stroke-width:0"
           x="1334.3704"
           y="743.76782">  GREAT  EXPERIENCE.</tspan></text>
      <text
         xml:space="preserve"
         style="font-size:63.3056px;font-family:'Times New Roman';-inkscape-font-specification:'Times New Roman, Normal';writing-mode:lr-tb;direction:ltr;fill:#091e47;fill-opacity:1;fill-rule:evenodd;stroke:#091e47;stroke-width:0;stroke-miterlimit:0;paint-order:markers stroke fill"
         x="922.61804"
         y="745.32391"
         id="text2"
         transform="scale(1.0000858,0.9999142)"><tspan
           sodipodi:role="line"
           id="tspan2"
           style="font-weight:bold;fill:#091e47;fill-opacity:1;stroke-width:0"
           x="922.61804"
           y="745.32391">GOOD  FOOD. </tspan></text>
    </g>
    <path
       fill="#071f3a"
       d="m 210.374,173.336 c 12.026,-0.305 23.776,5.1 31.181,14.47 5.646,7.143 2.386,11.368 -3.653,15.391 -9.512,-9.785 -11.974,-14.161 -25.943,-14.649 -11.967,1.145 -15.499,10.562 -24.143,17.138 -4.131,-0.078 -2.927,0.458 -6.075,-1.573 -4.343,-7.536 8.885,-22.844 15.235,-26.429 5.183,-2.927 7.7,-3.451 13.398,-4.348 m 11.922,200.477 c 2.783,2.999 10.628,24.343 11.522,29.329 2.189,12.211 -0.505,20.86 -13.717,23.283 -21.999,-6.736 -11.964,-26.487 -4.67,-40.985 2.099,-4.173 3.852,-7.973 6.865,-11.627"
       id="path33"
       style="display:inline" />
    <path
       fill="#091e47"
       d="M539.207 434.834c4.38 2.088 12.912 7.059 17.072 7.234l1.452-1.361-.432-4.64c1.993 1.226 6.203 4.645 6.893 5.005-4.876 8.006-13.303 22.898-18.444 30.012l-.186-6.527c2.895-7.516-3.593-21.951-6.355-29.723"
       id="path48" />
    <rect
       width="100%"
       height="100%"
       fill="url(#_9hf2zua9)"
       pointer-events="none"
       style="mix-blend-mode:multiply"
       id="rect49" />
    <path
       id="path563"
       inkscape:connector-curvature="0"
       sodipodi:nodetypes="ccccscccccccccccccccccc"
       style="fill:#ffffff;fill-rule:evenodd;stroke-width:0.707149pt"
       d="m 633.33791,155.59227 -7.68029,5.68499 3.78356,3.12532 c 9.19371,-7.10622 15.73539,-13.59728 20.84851,-24.37328 1.19517,14.38214 -11.98718,46.66773 -46.59089,47.02835 -37.04003,-0.0354 -49.89141,-34.29372 -48.46215,-47.63644 6.80405,12.33865 10.95607,18.36304 21.63633,24.78338 l 3.2673,-2.99804 -7.23402,-6.02438 9.3125,-2.41824 -5.01055,-8.43555 9.75663,0.71416 -1.22559,-9.82144 8.55227,5.00618 2.67607,-9.14264 6.14565,7.36078 5.75525,-6.97894 3.13294,9.48203 7.99853,-5.5577 -1.02546,9.64467 9.5756,-1.12427 -4.49078,8.91636 z" />
  </g>
</svg>
