<?xml version="1.0" encoding="UTF-8" standalone="no"?>
<!-- Created with Inkscape (http://www.inkscape.org/) -->

<svg
   width="400mm"
   height="560mm"
   viewBox="0 0 400.00001 560"
   version="1.1"
   id="svg1"
   inkscape:version="1.4.3 (0d15f75, 2025-12-25)"
   sodipodi:docname="mono_chrome_logo.svg"
   xmlns:inkscape="http://www.inkscape.org/namespaces/inkscape"
   xmlns:sodipodi="http://sodipodi.sourceforge.net/DTD/sodipodi-0.dtd"
   xmlns="http://www.w3.org/2000/svg"
   xmlns:svg="http://www.w3.org/2000/svg">
  <sodipodi:namedview
     id="namedview1"
     pagecolor="#ffffff"
     bordercolor="#000000"
     borderopacity="0.25"
     inkscape:showpageshadow="2"
     inkscape:pageopacity="0.0"
     inkscape:pagecheckerboard="0"
     inkscape:deskcolor="#d1d1d1"
     inkscape:document-units="mm"
     showguides="true"
     inkscape:zoom="0.15590722"
     inkscape:cx="12.828142"
     inkscape:cy="740.8252"
     inkscape:window-width="1366"
     inkscape:window-height="697"
     inkscape:window-x="-8"
     inkscape:window-y="-8"
     inkscape:window-maximized="1"
     inkscape:current-layer="svg1" />
  <defs
     id="defs1" />
  <g
     id="g6"
     transform="matrix(0.534958,0,0,0.53504992,399.22291,-800.11064)"
     inkscape:label="vertical"
     style="display:block;fill:#282423;fill-opacity:1">
    <path
       id="path1-1"
       style="display:inline;fill:#282423;fill-opacity:1"
       d="M -196.36701 1531.3356 C -254.87601 1616.8906 -310.48382 1712.4626 -357.39182 1805.3246 C -358.98982 1808.4886 -357.9852 1824.4309 -357.8072 1829.1389 C -359.7602 1849.6129 -358.68211 1897.401 -357.78111 1918.639 C -350.07611 1907.295 -344.73154 1900.1392 -335.21654 1890.3702 L -323.26048 1890.1162 C -313.87148 1878.9662 -311.88902 1867.7197 -297.82402 1863.1717 C -290.29202 1851.0317 -280.01497 1838.7504 -269.36497 1829.2084 C -258.69997 1819.6524 -248.39884 1832.531 -240.93684 1839.141 C -233.12484 1846.061 -227.39357 1851.7771 -221.31757 1860.3891 C -217.71357 1861.6081 -211.36058 1862.7072 -207.39958 1863.4962 C -202.29258 1869.7362 -197.14783 1877.0633 -192.33883 1883.6133 C -183.40083 1872.5873 -169.82262 1851.0543 -161.58362 1838.7913 L -120.77729 1779.2705 L -113.54782 1769.9367 C -134.55682 1751.5457 -155.35625 1731.3433 -176.30725 1713.3993 C -159.12725 1701.8143 -136.47952 1689.2744 -118.29952 1678.5224 L -7.6028116 1613.1371 L -139.24123 1555.7681 C -157.78323 1547.7591 -178.24501 1539.7896 -196.36701 1531.3356 z M -187.82475 1618.0763 L -181.67912 1625.4368 L -175.92375 1618.4588 L -172.79104 1627.9403 L -164.79264 1622.3829 L -165.81852 1632.0276 L -156.24266 1630.9034 L -160.73355 1639.8199 L -151.45425 1642.5841 L -159.13484 1648.2689 L -155.35105 1651.3943 C -146.15734 1644.2881 -139.61617 1637.7968 -134.50305 1627.0208 C -133.30788 1641.4029 -146.49002 1673.689 -181.09373 1674.0497 C -218.13376 1674.0147 -230.9848 1639.756 -229.55554 1626.4133 C -222.75149 1638.752 -218.59955 1644.7761 -207.91929 1651.1964 L -204.65231 1648.1984 L -211.88661 1642.1736 L -202.5735 1639.7562 L -207.58409 1631.3207 L -197.82758 1632.0344 L -199.05343 1622.2129 L -190.50151 1627.2188 L -187.82475 1618.0763 z M -257.65234 1726.8127 L -252.5722 1741.4121 L -241.27301 1729.9893 L -242.30855 1745.3739 L -227.38786 1739.0371 L -234.38163 1752.8639 L -218.10952 1752.577 L -229.99796 1762.7414 L -214.85123 1768.5489 L -229.82409 1773.5026 L -218.10952 1784.5197 L -233.88608 1783.5095 L -227.38786 1798.0596 L -241.56667 1791.2399 L -241.27301 1807.1075 L -251.69604 1795.5147 L -257.65234 1810.2841 L -262.73248 1795.6847 L -274.03167 1807.1075 L -272.99517 1791.7229 L -287.91682 1798.0596 L -280.92208 1784.2338 L -297.19516 1784.5197 L -285.30671 1774.3564 L -300.45248 1768.5489 L -285.48059 1763.5942 L -297.19516 1752.577 L -281.4186 1753.5873 L -287.91682 1739.0371 L -273.73705 1745.8568 L -274.03167 1729.9893 L -263.60767 1741.5821 L -257.65234 1726.8127 z " />
    <path
       fill="#071f3a"
       d="m -196.36655,1531.3359 c 18.122,8.454 38.583,16.423 57.125,24.432 l 131.639,57.369 -110.697,65.386 c -18.18,10.752 -40.828,23.291 -58.008,34.876 20.951,17.944 41.751,38.147 62.76,56.538 l -7.23,9.334 c -7.634,-4.649 -15.659,-13.473 -22.598,-19.533 -17.388,-15.187 -35.878,-34.703 -54.195,-48.249 12.039,-9.015 32.668,-20.365 46.313,-28.383 a 5939,5939 0 0 0 81.335,-47.933 c 7.296,-4.358 29.001,-16.259 34.479,-20.832 a 5669,5669 0 0 1 -156.942,-68.186 c -11.787,19.943 -26.031,40.013 -38.461,59.96 a 3730,3730 0 0 0 -66.992,113.069 c -14.324,25.038 -27.592,51.503 -41.598,76.78 -4.005,7.229 -14.015,27.997 -18.371,33.175 -0.178,-4.708 -1.182,-20.65 0.416,-23.814 46.908,-92.862 102.516,-188.434 161.025,-273.989"
       id="path2-8"
       style="display:inline;fill:#282423;fill-opacity:1" />
    <path
       style="display:inline;fill:#282423;fill-opacity:1;stroke-width:0.652173"
       d="m -206.52044,2207.8585 c 9.56737,-0.093 19.42821,0.1154 29.02167,0.2002 l 0.013,118.8462 c -8.89563,0.1545 -17.79778,0.1408 -26.69993,-0.04 l -0.18261,-40.2228 c -0.13695,-10.695 -0.10435,-21.3913 0.11739,-32.0843 -9.54128,13.3982 -20.49126,33.4858 -29.02167,48.1036 -3.08477,0.088 -6.44346,0.034 -9.55432,0.046 a 2694.7785,2694.7785 0 0 0 -28.55213,-49.1347 l -0.0783,73.2188 c -8.71955,0.21 -17.90215,0.024 -26.66083,-0.022 -0.20217,-5.6296 -0.27391,-11.702 -0.11739,-17.3387 0.9,-33.1226 -1.2,-67.5032 0.31956,-100.4966 1.18044,-1.2261 2.09348,-0.868 4.24565,-1.0187 l 24.25431,0.074 c 9.28042,17.2304 23.56953,39.9671 31.59125,56.4677 1.23913,-2.7802 2.60217,-5.338 4.12172,-7.9637 9.28694,-16.0226 18.97822,-32.0217 27.18255,-48.6358"
       id="path20" />
    <path
       style="display:inline;fill:#282423;fill-opacity:1;stroke-width:0.652173"
       d="m -352.93322,2208.1344 c 7.89129,-0.7383 20.94779,-0.4637 28.89126,0.018 0.38478,38.9348 0.1826,79.5808 -0.0391,118.5305 -8.66086,0.4141 -18.26085,0.195 -26.9217,0.029 l -0.17609,-37.4276 -0.55435,-34.7249 c -8.90868,15.6332 -19.55866,32.5343 -28.89778,48.1199 -3.77608,0.1304 -5.98694,0.017 -9.76303,-0.315 -9.0652,-15.8739 -18.99779,-32.203 -28.38256,-47.9249 l -0.23478,72.3103 c -8.75869,0.1532 -17.88258,0.032 -26.67388,0.044 -0.4826,-11.8252 -1.01738,-115.4118 0.63913,-118.4816 l 1.62391,-0.3913 c 8.84999,-0.1637 17.7065,-0.1213 26.54996,0.1259 9.02608,18.6313 22.20649,37.7041 31.61082,56.1893 3.3,-6.3144 8.77825,-14.7555 12.52825,-21.1611 a 2741.7349,2741.7349 0 0 0 19.79997,-34.9408"
       id="path19" />
    <path
       style="display:inline;fill:#282423;fill-opacity:1"
       d="m -739.39255,1537.1119 c 38.227,-1.302 77.009,-0.581 115.271,-0.21 46.342,0.451 84.992,13.817 117.973,47.547 9.532,9.748 17.425,20.6 24.923,31.959 22.817,34.566 102.774,174.035 109.589,208.823 2.101,10.725 1.438,22.446 1.475,33.34 0.074,21.569 -0.537,43.135 -0.432,64.7 q 1.023,128.786 0.023,257.573 -34.363,0.368 -68.724,0.088 -0.48,-29.026 -0.33,-58.056 c -0.004,-17.099 0.002,-34.214 -0.141,-51.31 -0.574,-68.614 -28.937,-121.655 -66.021,-176.889 44.807,-6.751 77.299,-36.736 81.494,-82.923 a 94.05,94.05 0 0 0 -4.501,-38.519 c -12.263,-37.532 -50.99,-94.367 -73.46,-127.951 -31.999,-47.825 -137.796,-62.489 -144.345,13.516 -17.482,-38.89 -63.31,-90.246 -92.794,-121.688"
       id="path5-5" />
    <path
       id="path6-7"
       style="display:inline;stroke-width:0.605511;fill:#282423;fill-opacity:1"
       d="M -376.88068 2348.513 C -390.74614 2347.9913 -405.1008 2348.77 -414.47413 2348.7815 L -414.47413 2348.7824 C -414.71022 2386.0147 -414.69226 2423.2476 -414.42583 2460.48 C -406.00921 2460.466 -397.4233 2460.5441 -389.03091 2460.4182 C -389.31555 2449.0079 -389.31575 2437.5922 -389.02511 2426.1826 C -380.81436 2426.2782 -370.09636 2426.6391 -362.13387 2425.7055 C -337.102 2421.4935 -324.16863 2403.6073 -328.43143 2378.355 A 33.944999 33.944999 0 0 0 -342.2248 2356.0473 C -349.63929 2350.8572 -363.01521 2349.0347 -376.88068 2348.513 z M -614.00139 2348.821 L -637.66043 2348.879 L -637.66043 2348.8819 C -638.42398 2385.218 -637.99521 2424.0694 -637.80146 2460.4733 C -629.56227 2460.4153 -620.74413 2460.5123 -612.55337 2460.2289 L -612.47319 2391.3869 C -597.29059 2414.1107 -578.53175 2437.5015 -563.0367 2460.3844 C -555.29221 2460.4543 -547.54816 2460.4504 -539.80366 2460.3738 L -539.7911 2389.2814 C -539.81532 2376.7279 -539.56692 2361.2691 -540.17847 2348.8906 L -565.05369 2348.8635 L -565.04113 2391.7742 C -565.04113 2399.374 -565.30136 2409.0897 -564.84117 2416.4867 C -569.73976 2411.1993 -582.75229 2392.4496 -587.47529 2385.6132 C -595.7708 2373.5974 -606.091 2360.6352 -614.00139 2348.821 z M -378.39632 2370.9616 C -367.08355 2370.8424 -354.87077 2372.0513 -353.44478 2385.2017 C -352.8211 2390.9789 -354.35357 2394.9949 -357.90186 2399.4679 C -366.31848 2406.2406 -378.25301 2404.6121 -388.95846 2404.4323 C -389.14011 2393.464 -388.99491 2382.1285 -388.97681 2371.1306 C -385.83874 2371.189 -382.16724 2371.0014 -378.39632 2370.9616 z " />
    <path
       fill="#071f3a"
       d="m -283.20055,1912.0329 c 5.602,7.791 14.716,27.651 20.436,31.449 2.63,-1.763 -0.601,-5.372 1.733,-8.461 5.411,2.804 12.871,11.378 21.801,16.528 l 0.186,6.527 c -23.729,46.122 -45.415,91.067 -48.38,143.785 -1.381,24.56 -0.637,54.208 -0.606,79.089 l -69.83,-0.137 a 8481,8481 0 0 1 -0.259,-206.625 c 5.363,-3.758 16.08,-15.112 18.855,-15.514 1.007,2.728 -1.03,7.1 -2.047,10.08 11.527,-9.813 24.433,-22.112 35.774,-32.421 -8.21,16.009 -17.245,34.032 -24.689,50.334 l 13.333,-7.789 c -7.842,13.1 -14.403,25.666 -22.72,39.151 26.686,-20.066 39.504,-37.347 49.644,-68.925 -5.124,3.548 -10.269,7.424 -15.308,11.121 7.686,-15.965 14.71,-32.088 22.077,-48.192"
       id="path8-1"
       style="display:inline;fill:#282423;fill-opacity:1" />
    <path
       fill="#c5c9d3"
       d="m -284.19955,1959.4719 c 5.715,1.337 8.849,12.12 10.539,16.993 -7.098,-2.787 -9.04,-10.281 -10.539,-16.993"
       id="path9-8"
       style="display:inline;fill:#282423;fill-opacity:1" />
    <path
       id="path10-2"
       style="display:inline;fill:#282423;fill-opacity:1"
       d="M 1553.1304 407.65648 C 1540.5104 407.71648 1526.3307 407.45193 1513.8407 407.89893 C 1505.1007 426.82993 1496.8608 448.24257 1488.9408 467.68157 A 6799 6799 0 0 0 1440.3503 591.76244 C 1451.4003 591.90344 1471.3496 591.57845 1481.6996 592.72745 C 1485.7696 582.52445 1492.86 566.05353 1495.89 556.06353 L 1550.4997 555.87531 L 1568.3403 555.8147 A 1695 1695 0 0 0 1581.84 592.47384 L 1624.7607 591.94428 C 1603.7507 532.29128 1576.3304 467.16848 1553.1304 407.65648 z M 1531.2696 460.67928 C 1534.7596 463.50928 1552.2703 511.92623 1555.4803 519.84623 L 1533.6196 519.89727 L 1509.3307 519.67875 C 1516.1607 499.71175 1524.7596 481.83928 1531.2696 460.67928 z "
       transform="matrix(0.60551197,0,0,0.60551194,-1201.5245,2101.8044)" />
    <path
       fill="#e52730"
       d="m -515.21356,2348.8061 79.81252,-0.021 c 0.2301,7.0142 -0.0121,14.9766 -0.0728,22.0587 -18.32278,0.3264 -36.65164,0.315 -54.98048,-0.032 q 0.0182,11.1485 0.29064,22.2937 c 15.7857,0.3711 31.5714,0.505 47.36315,0.4021 l -0.24826,21.6185 -45.33468,0.078 c -0.29064,0 -1.10202,0.2851 -1.43506,0.3881 -1.06569,2.3016 -0.42386,18.6062 -0.35119,22.3779 18.38333,0.2204 36.76668,0.2125 55.14397,-0.024 l -0.0303,22.2018 c -26.70912,0.2742 -53.42431,0.3166 -80.13344,0.127 -0.19982,-3.6003 -0.23011,-7.61 -0.18166,-11.2394 0.4057,-33.1797 -0.76901,-67.1302 0.15743,-100.2298"
       id="path12-9"
       style="display:block;stroke-width:0.605511;fill:#282423;fill-opacity:1" />
    <path
       fill="#071f3a"
       d="m -573.70028,2207.6876 c 8.99347,0.012 18.10432,0.2081 27.10431,0.3235 0.64565,24.9632 -1.25869,53.8819 1.2913,78.6795 1.68261,16.3532 28.56518,22.1028 39.86733,10.5913 9.97825,-10.17 6.52825,-27.4865 7.10869,-40.6565 0.21521,-16.2789 -0.33261,-32.5343 0.11087,-48.8171 q 13.71519,-0.165 27.41082,0.2283 l 0.22174,24.223 c -0.29347,14.4958 0.22174,29.1756 0.0196,43.7705 0.0848,14.6759 -3.60652,29.5383 -14.68694,39.9796 -18.38475,17.3158 -58.72817,16.8436 -76.01075,-1.5822 a 45.502104,45.502104 0 0 1 -10.8652,-20.6824 c -1.98913,-8.4424 -2.03478,-18.6593 -1.91739,-27.3984 0.24783,-19.4726 -0.35217,-39.2158 0.34565,-58.6591 m 410.89495,0.2668 c 9.48911,-0.3672 20.09344,-0.1591 29.66085,-0.1774 8.38035,15.3606 17.34127,31.0819 25.33685,46.556 7.976084,-13.1485 18.678364,-32.6706 25.656647,-46.3923 9.860805,-0.2374 20.047765,-0.012 29.928205,0.083 -7.15429,13.9917 -18.73697,32.9967 -26.889135,46.8456 -2.98037,5.2728 -14.139109,22.1139 -14.491279,26.8389 -1.023984,13.8162 -0.45659,31.1419 -0.521814,45.1805 -9.078274,0.2074 -18.162984,0.2485 -27.241304,0.1233 -0.17608,-7.8978 0.71087,-39.8275 -0.79565,-45.5595 -2.23043,-8.4874 -40.98902,-67.6981 -40.64337,-73.4979 m -456.58618,0.019 c 9.76303,-0.45 21.20866,-0.1134 31.08908,-0.053 l -28.79995,48.4969 a 1839.1276,1839.1276 0 0 1 -14.30215,23.6275 q 0,23.4346 -0.29348,46.8671 c -8.62825,0.1565 -17.76976,-0.027 -26.44105,-0.056 -0.30782,-12.7062 1.71913,-34.3056 -1.13348,-46.3845 -2.39217,-10.1269 -40.78037,-65.7722 -40.11776,-72.1446 l 1.89391,-0.422 q 13.79085,-0.1017 27.58235,-0.021 c 7.86455,14.6543 17.8591,31.4034 25.0617,45.8693 8.41303,-13.3507 18.31302,-31.6787 25.46083,-45.7787"
       id="path13-5"
       style="display:block;stroke-width:0.652173;fill:#282423;fill-opacity:1" />
    <path
       style="display:inline;fill:#282423;fill-opacity:1"
       d="m -524.81255,1788.6549 c 8.567,-15.649 5.426,-38.414 22.113,-52.86 10.725,-10.485 28.81,-9.221 39.134,1.675 15.523,16.382 0.271,33.598 0.09,47.219 -0.476,10.305 -7.046,20.904 -14.69,27.593 -30.172,26.405 -77.223,22.356 -106.263,-3.745 -11.992,-10.779 -20.457,-21.976 -28.511,-35.87 -2.476,-4.271 -4.78,-7.248 -6.296,-12.072 0.64,-2.913 1.835,-4.124 4.655,-5.934 a 49,49 0 0 1 2.539,-1.49 c 6.061,1.476 15.928,17.002 21.144,20.893 19.365,14.449 43.461,16.918 66.085,14.591"
       id="path21" />
    <path
       style="display:inline;fill:#282423;fill-opacity:1;stroke-width:0.605511"
       d="m -202.64226,2348.8496 q 12.61584,-0.07 25.23166,0.015 l 0.0303,88.8506 c 16.5789,0.2088 34.06001,-0.2224 50.72369,-0.278 l 0.27855,22.9386 -76.08253,-0.079 c -0.75688,-13.1983 -0.42991,-28.0498 -0.39358,-41.325 z"
       id="path14-4" />
    <path
       style="display:inline;fill:#282423;fill-opacity:1"
       d="m -357.76755,1929.8419 c 6.687,-7.897 20.981,-27.616 28.476,-31.659 3.616,0.277 7.013,2.247 9.584,-0.233 6.917,-6.672 11.158,-15.686 17.452,-22.926 2.249,-2.588 7.974,-3.308 9.708,-5.729 9.511,-13.281 20.707,-24.6 31.368,-36.886 16.002,14.551 25.114,20.178 38.008,37.875 4.481,0.311 7.785,0.158 11.336,2.876 l 0.525,0.396 c 5.77,4.425 9.934,11.756 15.381,17.129 -8.846,13.041 -16.213,23.84 -24.671,37.379 -0.69,-0.36 -4.9,-3.779 -6.893,-5.005 -5.239,-3.509 -23.901,-26.772 -20.619,-33.648 q 2.638,1.202 5.32,2.3 c 4.936,-4.811 -12.402,-24.577 -15.932,-28.422 -0.456,-5.503 -0.873,-13.232 -1.699,-18.517 -4.425,4.74 -18.551,19.385 -18.791,24.909 3.519,1.926 2.835,0.859 3.854,4.172 -1.169,5.528 -9.351,16.992 -14.043,19.428 -1.271,-3.123 1.561,-9.745 2.807,-13.169 -3.646,2.877 -13.072,9.385 -13.679,13.755 -0.266,1.919 1.188,3.524 1.091,3.934 -1.893,7.985 -18.984,23.815 -24.234,28.215 1.581,-3.466 4.103,-7.766 3.543,-11.348 -7.271,-7.375 -21.96,19.912 -25.681,24.48 -3.882,4.766 -7.928,8.784 -12.265,13.121 z"
       id="path1" />
    <path
       style="display:inline;fill:#282423;fill-opacity:1"
       d="m -463.47555,1784.6889 c -0.476,10.305 -7.046,20.904 -14.69,27.593 -30.172,26.405 -77.223,22.356 -106.263,-3.745 -11.992,-10.779 -20.457,-21.976 -28.511,-35.87 -2.476,-4.271 -4.78,-7.248 -6.296,-12.072 0.64,-2.913 1.835,-4.124 4.655,-5.934 0.83122,-0.522 1.67793,-1.0189 2.539,-1.49 6.061,1.476 15.928,17.002 21.144,20.893 19.365,14.449 43.461,16.918 66.085,14.591 3.861,9.046 -17.796,23.366 -23.875,27.74 32.467,5.641 46.252,-1.255 56.84,-34.71 1.338,-4.23 1.688,-11.495 4.463,-14.428 l 2.398,0.176 1.187,1.982 c 1.361,11.362 -9.976,32.343 -16.046,42.36 24.383,-7.729 20.923,-14.888 35.782,-26.629 z"
       id="path15-3"
       sodipodi:nodetypes="ccccccccccccccccc" />
    <path
       fill="#ffffff"
       d="m -220.90555,1881.5699 c 7.705,2.182 13.65,12.245 11.53,19.73 -5.178,-2.286 -11.236,-14.429 -11.53,-19.73"
       id="path16-1"
       style="display:inline;fill:#282423;fill-opacity:1" />
    <path
       fill="#c5c9d3"
       d="m -249.96955,1854.9509 c 4.826,3.831 9.259,7.592 11.361,13.544 -7.81,-1.063 -10.515,-6.082 -11.361,-13.544"
       id="path17-2"
       style="display:inline;fill:#282423;fill-opacity:1" />
    <path
       fill="#091e47"
       d="m -245.58555,1921.8259 c 4.38,2.088 12.912,7.059 17.072,7.234 l 1.452,-1.361 -0.432,-4.64 c 1.993,1.226 6.203,4.645 6.893,5.005 -4.876,8.006 -13.303,22.898 -18.444,30.012 l -0.186,-6.527 c 2.895,-7.516 -3.593,-21.951 -6.355,-29.723"
       id="path48-7"
       style="display:block;fill:#282423;fill-opacity:1"
       transform="translate(4.6732638e-6)" />
    <text
       xml:space="preserve"
       style="display:block;font-size:60.5672px;font-family:'Times New Roman';-inkscape-font-specification:'Times New Roman, Normal';writing-mode:lr-tb;direction:ltr;fill:#282423;fill-opacity:1;fill-rule:evenodd;stroke:#091e47;stroke-width:0;stroke-miterlimit:0;paint-order:markers stroke fill"
       x="1334.3705"
       y="690.95862"
       id="text5-4"
       transform="matrix(0.59177798,0,0,0.59167642,-1242.096,2095.5976)"><tspan
         sodipodi:role="line"
         id="tspan5-1"
         style="font-weight:bold;stroke-width:0;fill:#282423;fill-opacity:1"
         x="1334.3705"
         y="690.95862">  GREAT  EXPERIENCE.</tspan></text>
    <text
       xml:space="preserve"
       style="display:block;font-size:63.3056px;font-family:'Times New Roman';-inkscape-font-specification:'Times New Roman, Normal';writing-mode:lr-tb;direction:ltr;fill:#282423;fill-opacity:1;fill-rule:evenodd;stroke:#091e47;stroke-width:0;stroke-miterlimit:0;paint-order:markers stroke fill"
       x="922.61804"
       y="745.32391"
       id="text2-1"
       transform="matrix(0.59177798,0,0,0.59167642,-1242.096,2064.3516)"><tspan
         sodipodi:role="line"
         id="tspan2-3"
         style="font-weight:bold;fill:#282423;fill-opacity:1;stroke-width:0"
         x="922.61804"
         y="745.32391">GOOD  FOOD. </tspan></text>
    <path
       fill="#071f3a"
       d="m -574.41855,1660.3279 c 12.026,-0.305 23.776,5.1 31.181,14.47 5.646,7.143 2.386,11.368 -3.653,15.391 -9.512,-9.785 -11.974,-14.161 -25.943,-14.649 -11.967,1.145 -15.499,10.562 -24.143,17.138 -4.131,-0.078 -2.927,0.458 -6.075,-1.573 -4.343,-7.536 8.885,-22.844 15.235,-26.429 5.183,-2.927 7.7,-3.451 13.398,-4.348 m 11.922,200.477 c 2.783,2.999 10.628,24.343 11.522,29.329 2.189,12.211 -0.505,20.86 -13.717,23.283 -21.999,-6.736 -11.964,-26.487 -4.67,-40.985 2.099,-4.173 3.852,-7.973 6.865,-11.627"
       id="path33-8"
       style="display:inline;fill:#282423;fill-opacity:1"
       transform="translate(4.6732638e-6)" />
  </g>
</svg>
